<svg width="26" height="26" viewBox="0 0 26 26" fill="none" xmlns="http://www.w3.org/2000/svg">
<path fill-rule="evenodd" clip-rule="evenodd" d="M11 0C4.92487 0 0 4.92487 0 11C0 17.0751 4.92487 22 11 22C13.7147 22 16.1998 21.0166 18.1183 19.3866C18.1635 19.4709 18.2217 19.5502 18.2929 19.6213L23.9497 25.2782C24.3403 25.6687 24.9734 25.6687 25.364 25.2782C25.7545 24.8876 25.7545 24.2545 25.364 23.864L19.7071 18.2071C19.6333 18.1333 19.5508 18.0734 19.4629 18.0275C21.0472 16.1217 22 13.6721 22 11C22 4.92487 17.0751 0 11 0ZM2 11C2 6.02944 6.02944 2 11 2C15.9706 2 20 6.02944 20 11C20 15.9706 15.9706 20 11 20C6.02944 20 2 15.9706 2 11Z" fill="#004165"/>
</svg>
